HIERARCHY
ROOT Hips
{
	OFFSET 81.157204 -10.406315 94.323196
	CHANNELS 6 Xposition Yposition Zposition Xrotation Yrotation Zrotation
	JOINT spine
	{
		OFFSET 0.000000 -0.448574 7.800591
		CHANNELS 3 Xrotation Yrotation Zrotation
		JOINT spine1
		{
			OFFSET 0.000000 -0.000002 10.136398
			CHANNELS 3 Xrotation Yrotation Zrotation
			JOINT spine2
			{
				OFFSET 0.000000 -0.000002 9.712509
				CHANNELS 3 Xrotation Yrotation Zrotation
				JOINT Neck
				{
					OFFSET 0.000000 -1.188874 24.936104
					CHANNELS 3 Xrotation Yrotation Zrotation
					JOINT Head
					{
						OFFSET 0.000000 -0.000001 7.533844
						CHANNELS 3 Xrotation Yrotation Zrotation
						End Site
						{
							OFFSET 0.000000 6.014017 18.236099
						}
					}
				}
				JOINT RightShoulder
				{
					OFFSET -4.089653 0.569455 10.488792
					CHANNELS 3 Xrotation Yrotation Zrotation
					JOINT RightArm
					{
						OFFSET 0.000000 -0.000002 13.757004
						CHANNELS 3 Xrotation Yrotation Zrotation
						JOINT RightArmRoll
						{
							OFFSET 0.000000 -0.000001 6.944778
							CHANNELS 3 Xrotation Yrotation Zrotation
							JOINT RightForeArm
							{
								OFFSET 0.000000 -0.000004 20.227692
								CHANNELS 3 Xrotation Yrotation Zrotation
								JOINT RightForeArmRoll
								{
									OFFSET 0.000000 -0.000001 7.793121
									CHANNELS 3 Xrotation Yrotation Zrotation
									JOINT RightHand
									{
										OFFSET 0.000000 -0.000003 15.639099
										CHANNELS 3 Xrotation Yrotation Zrotation
										End Site
										{
											OFFSET 0.000000 0.000000 0.100006
										}
									}
								}
							}
						}
					}
				}
				JOINT LeftShoulder
				{
					OFFSET 4.089653 0.569455 10.488792
					CHANNELS 3 Xrotation Yrotation Zrotation
					JOINT LeftArm
					{
						OFFSET 0.000000 -0.000002 13.757004
						CHANNELS 3 Xrotation Yrotation Zrotation
						JOINT LeftArmRoll
						{
							OFFSET 0.000000 -0.000001 6.944778
							CHANNELS 3 Xrotation Yrotation Zrotation
							JOINT LeftForeArm
							{
								OFFSET 0.000000 -0.000004 20.227692
								CHANNELS 3 Xrotation Yrotation Zrotation
								JOINT LeftForeArmRoll
								{
									OFFSET 0.000000 -0.000001 7.793121
									CHANNELS 3 Xrotation Yrotation Zrotation
									JOINT LeftHand
									{
										OFFSET 0.000000 -0.000003 15.639099
										CHANNELS 3 Xrotation Yrotation Zrotation
										End Site
										{
											OFFSET 0.000000 0.000000 0.100006
										}
									}
								}
							}
						}
					}
				}
			}
		}
	}
	JOINT RightUpLeg
	{
		OFFSET -6.914162 1.063580 -1.267883
		CHANNELS 3 Xrotation Yrotation Zrotation
		JOINT RightUpLegRoll
		{
			OFFSET 0.000000 -0.000003 18.337799
			CHANNELS 3 Xrotation Yrotation Zrotation
			JOINT RightLeg
			{
				OFFSET 0.000000 0.000004 -22.708496
				CHANNELS 3 Xrotation Yrotation Zrotation
				JOINT RightLegRoll
				{
					OFFSET 0.000000 -0.000004 22.782799
					CHANNELS 3 Xrotation Yrotation Zrotation
					JOINT RightFoot
					{
						OFFSET 0.000000 -0.000003 18.962898
						CHANNELS 3 Xrotation Yrotation Zrotation
						JOINT RightToeBase
						{
							OFFSET 0.000000 -0.000003 15.852005
							CHANNELS 3 Xrotation Yrotation Zrotation
							End Site
							{
								OFFSET 0.006721 0.884892 7.677002
							}
						}
					}
				}
			}
		}
	}
	JOINT LeftUpLeg
	{
		OFFSET 6.914162 1.063580 -1.267883
		CHANNELS 3 Xrotation Yrotation Zrotation
		JOINT LeftUpLegRoll
		{
			OFFSET 0.000000 -0.000003 18.337898
			CHANNELS 3 Xrotation Yrotation Zrotation
			JOINT LeftLeg
			{
				OFFSET 0.000000 -0.000004 22.708397
				CHANNELS 3 Xrotation Yrotation Zrotation
				JOINT LeftLegRoll
				{
					OFFSET 0.000000 -0.000004 22.993393
					CHANNELS 3 Xrotation Yrotation Zrotation
					JOINT LeftFoot
					{
						OFFSET 0.000000 -0.000003 18.752197
						CHANNELS 3 Xrotation Yrotation Zrotation
						JOINT LeftToeBase
						{
							OFFSET 0.000000 -0.000003 15.852005
							CHANNELS 3 Xrotation Yrotation Zrotation
							End Site
							{
								OFFSET -0.030113 0.884892 7.677002
							}
						}
					}
				}
			}
		}
	}
}
MOTION
Frames: 10
Frame Time: 0.041667
53.285797 -13.240217 93.344292 -6.161958 -3.589874 -3.099985 0.892999 0.388908 0.403891 5.784246 0.785176 0.809145 7.429320 0.794620 0.799492 6.322133 26.359694 2.882218 -1.965390 -25.169517 2.362273 -4.484419 -37.680385 -2.969797 144.218625 -7.677023 89.234338 -0.000002 0.000002 -0.000002 42.015857 -30.689423 13.117034 -0.000579 0.000002 -3.005020 -5.000082 -8.000519 -0.000525 -13.016498 69.534638 15.766491 65.203294 95.572057 -76.077816 -0.000002 0.000018 -0.000003 45.828746 7.240535 -0.344379 0.000004 -0.000002 3.000001 -4.999895 7.999105 -0.000074 -2.433100 -164.287483 4.655832 -179.999991 0.000006 -0.738995 164.533219 2.123298 -1.118635 -0.000008 -0.000003 -0.269143 69.969612 4.605885 8.124529 25.485881 -7.352773 0.038678 0.356986 -178.884034 6.363554 -0.000004 -0.000004 -1.461020 -13.764464 5.616128 0.934219 -0.000003 0.000001 -0.185857 73.019660 -7.253609 -0.783105 25.456965 7.355617 -0.000001 
53.293900 -13.240614 93.344292 -6.160412 -3.590988 -3.090937 0.892966 0.387476 0.403836 5.784361 0.782445 0.807365 7.429445 0.791883 0.797746 6.334071 26.371721 2.902043 -1.984069 -25.184069 2.380783 -4.470104 -37.716899 -2.955191 144.228747 -7.813942 89.188849 0.000001 0.000001 -0.000001 42.283860 -30.568150 13.143686 -0.000579 0.000002 -3.005020 -5.000080 -8.000517 -0.000525 -13.109594 69.509708 15.869519 65.504021 95.689564 -76.273358 -0.000002 0.000018 -0.000002 46.129919 7.247134 -0.342966 0.000004 -0.000004 3.000000 -4.999894 7.999106 -0.000073 -2.442484 -164.291581 4.649154 -179.999991 0.000004 -0.741002 164.514423 2.129846 -1.117072 -0.000008 -0.000001 -0.267652 69.981531 4.610521 8.113353 25.485876 -7.352771 0.038676 0.351451 -178.879021 6.368475 -0.000004 -0.000004 -1.461260 -13.767050 5.614920 0.934007 -0.000003 0.000001 -0.185860 73.017618 -7.254721 -0.780605 25.456964 7.355617 -0.000001 
53.306801 -13.233217 93.345200 -6.158910 -3.591912 -3.082581 0.892980 0.386012 0.403780 5.784608 0.779636 0.805501 7.429689 0.789070 0.795914 6.344763 26.384698 2.921916 -2.001908 -25.199520 2.399228 -4.456118 -37.751497 -2.940740 144.238828 -7.946847 89.145109 0.000001 -0.000002 -0.000000 42.547820 -30.450281 13.168774 -0.000583 0.000001 -3.005020 -5.000081 -8.000517 -0.000525 -13.203283 69.485277 15.973229 65.807302 95.805909 -76.471877 -0.000002 0.000019 -0.000002 46.428716 7.255267 -0.342091 0.000005 -0.000005 3.000000 -4.999893 7.999109 -0.000073 -2.451954 -164.295679 4.642325 -179.999991 0.000004 -0.742000 164.496049 2.137373 -1.116257 -0.000007 -0.000003 -0.266205 69.993047 4.615198 8.101901 25.485878 -7.352770 0.038676 0.346213 -178.874007 6.373305 -0.000005 -0.000004 -1.461509 -13.769334 5.613816 0.933792 -0.000003 0.000001 -0.185859 73.015480 -7.255871 -0.777914 25.456967 7.355618 -0.000001 
53.311203 -13.230112 93.344200 -6.157430 -3.592718 -3.074724 0.893042 0.384525 0.403727 5.784943 0.776775 0.803576 7.430025 0.786201 0.794024 6.354569 26.398314 2.941841 -2.019140 -25.215581 2.417629 -4.442365 -37.784688 -2.926390 144.248637 -8.077326 89.102263 -0.000003 0.000002 0.000001 42.808993 -30.334987 13.192738 -0.000581 0.000001 -3.005020 -5.000080 -8.000518 -0.000525 -13.297344 69.461255 16.077377 66.110501 95.921462 -76.670390 -0.000001 0.000015 -0.000002 46.725819 7.264538 -0.341647 0.000005 -0.000004 2.999999 -4.999898 7.999108 -0.000074 -2.461458 -164.300788 4.635450 -179.999991 0.000006 -0.742996 164.478045 2.144887 -1.114447 -0.000007 -0.000004 -0.264787 70.004159 4.619923 8.090374 25.485876 -7.352773 0.038677 0.341190 -178.869021 6.378055 -0.000005 -0.000005 -1.461740 -13.771321 5.612786 0.933562 -0.000003 0.000001 -0.185855 73.013144 -7.257071 -0.775247 25.456967 7.355617 -0.000001 
53.322697 -13.229118 93.343300 -6.155972 -3.593434 -3.067159 0.893120 0.383025 0.403675 5.785330 0.773880 0.801617 7.430409 0.783303 0.792099 6.363877 26.412348 2.961784 -2.036040 -25.231945 2.436007 -4.428742 -37.817084 -2.912094 144.258117 -8.207031 89.059608 -0.000001 0.000003 0.000001 43.068256 -30.221275 13.215560 -0.000580 0.000001 -3.005020 -5.000079 -8.000518 -0.000524 -13.391462 69.437288 16.181603 66.409246 96.036640 -76.864668 -0.000002 0.000019 -0.000002 47.021973 7.274476 -0.341451 0.000004 -0.000003 3.000000 -4.999893 7.999104 -0.000073 -2.470998 -164.304886 4.628474 -179.999991 0.000006 -0.743993 164.460054 2.152411 -1.112627 -0.000008 -0.000003 -0.263385 70.015183 4.624661 8.078651 25.485881 -7.352772 0.038676 0.336286 -178.863011 6.382772 -0.000005 -0.000004 -1.461980 -13.773206 5.611808 0.933333 -0.000003 0.000000 -0.185847 73.010795 -7.258270 -0.772377 25.456969 7.355617 -0.000001 
53.334702 -13.225818 93.342697 -6.154521 -3.594139 -3.059673 0.893202 0.381521 0.403622 5.785727 0.770978 0.799649 7.430814 0.780394 0.790165 6.373045 26.426485 2.981724 -2.052838 -25.248505 2.454362 -4.415133 -37.849271 -2.897792 144.267597 -8.335984 89.017302 -0.000000 -0.000002 0.000002 43.326885 -30.108382 13.237503 -0.000581 0.000001 -3.005020 -5.000080 -8.000518 -0.000524 -13.485451 69.413348 16.285714 66.701155 96.151749 -77.052218 -0.000003 0.000018 -0.000003 47.317860 7.284773 -0.341424 0.000003 -0.000003 3.000000 -4.999893 7.999108 -0.000072 -2.480557 -164.308984 4.621475 -179.999991 0.000004 -0.745005 164.442268 2.159939 -1.111822 -0.000008 -0.000004 -0.261988 70.026111 4.629412 8.067035 25.485878 -7.352769 0.038676 0.331416 -178.858025 6.387466 -0.000004 -0.000004 -1.462210 -13.774991 5.610833 0.933093 -0.000004 0.000001 -0.185841 73.008370 -7.259505 -0.769620 25.456967 7.355616 -0.000001 
53.333199 -13.232718 93.381393 -6.153051 -3.594875 -3.052049 0.893276 0.380024 0.403569 5.786102 0.768089 0.797696 7.431189 0.777501 0.788247 6.382450 26.440408 3.001645 -2.069804 -25.264863 2.472715 -4.401464 -37.881851 -2.883449 144.276873 -8.465806 88.974668 -0.000001 0.000001 -0.000001 43.585886 -29.995329 13.258638 -0.000581 0.000002 -3.005020 -5.000082 -8.000519 -0.000525 -13.579091 69.389278 16.389450 66.985462 96.267049 -77.232009 -0.000002 0.000017 -0.000001 47.614229 7.295029 -0.341455 0.000002 -0.000004 3.000001 -4.999897 7.999105 -0.000074 -2.490083 -164.314079 4.614548 -179.999991 0.000003 -0.746001 164.424278 2.167448 -1.109996 -0.000007 -0.000002 -0.260584 70.037040 4.634164 8.055417 25.485883 -7.352770 0.038675 0.326489 -178.853011 6.392175 -0.000005 -0.000005 -1.462452 -13.776877 5.609845 0.932863 -0.000003 0.000001 -0.185835 73.006034 -7.260705 -0.766851 25.456965 7.355617 -0.000001 
53.342201 -13.227317 93.375206 -6.151576 -3.595701 -3.044093 0.893325 0.378541 0.403516 5.786419 0.765238 0.795785 7.431503 0.774644 0.786369 6.392450 26.453913 3.021546 -2.087175 -25.280914 2.491093 -4.387603 -37.915251 -2.868981 144.286080 -8.597340 88.931331 -0.000000 -0.000002 -0.000000 43.846208 -29.881299 13.279144 -0.000582 0.000002 -3.005020 -5.000080 -8.000518 -0.000525 -13.672055 69.364785 16.492445 67.257624 96.382992 -77.399424 -0.000002 0.000018 0.000000 47.911656 7.304869 -0.341351 0.000001 -0.000004 3.000000 -4.999894 7.999107 -0.000074 -2.499588 -164.318191 4.607656 -179.999991 0.000005 -0.746999 164.406082 2.174969 -1.108156 -0.000007 -0.000003 -0.259159 70.048364 4.638853 8.043769 25.485883 -7.352772 0.038679 0.321421 -178.848012 6.396942 -0.000005 -0.000004 -1.462690 -13.778965 5.608806 0.932640 -0.000004 0.000001 -0.185831 73.003712 -7.261931 -0.764086 25.456969 7.355618 -0.000001 
53.352600 -13.233416 93.346397 -6.150061 -3.596665 -3.035581 0.893332 0.377084 0.403460 5.786635 0.762447 0.793940 7.431719 0.771849 0.784558 6.403430 26.466674 3.041388 -2.105229 -25.296154 2.509488 -4.373485 -37.950249 -2.854372 144.295082 -8.731389 88.887112 -0.000000 -0.000002 -0.000001 44.109020 -29.765418 13.299052 -0.000582 0.000002 -3.005020 -5.000084 -8.000518 -0.000525 -13.764243 69.339876 16.594587 67.517253 96.499809 -77.554107 -0.000000 0.000019 -0.000003 48.210996 7.313955 -0.341042 0.000001 -0.000003 3.000001 -4.999896 7.999103 -0.000074 -2.509032 -164.322303 4.600882 -179.999991 0.000004 -0.747996 164.387682 2.182485 -1.107298 -0.000008 -0.000003 -0.257702 70.059894 4.643522 8.032411 25.485876 -7.352771 0.038677 0.316117 -178.843026 6.401783 -0.000004 -0.000004 -1.462929 -13.781247 5.607682 0.932417 -0.000004 0.000001 -0.185829 73.001560 -7.263052 -0.761495 25.456964 7.355616 -0.000001 
53.360397 -13.231915 93.358200 -6.148496 -3.597840 -3.026317 0.893289 0.375663 0.403405 5.786710 0.759738 0.792186 7.431803 0.769136 0.782838 6.415751 26.478572 3.061136 -2.124197 -25.310576 2.527929 -4.358966 -37.987258 -2.839531 144.304152 -8.868810 88.841766 -0.000000 0.000001 -0.000000 44.375401 -29.646866 13.318428 -0.000580 0.000002 -3.005021 -5.000080 -8.000518 -0.000526 -13.855229 69.314187 16.695404 67.761419 96.617848 -77.692814 -0.000001 0.000020 -0.000002 48.512897 7.321839 -0.340289 -0.000000 -0.000005 3.000000 -4.999893 7.999103 -0.000075 -2.518377 -164.327412 4.594298 -179.999991 0.000005 -0.748994 164.368789 2.189980 -1.105439 -0.000008 -0.000002 -0.256198 70.071915 4.648078 8.021310 25.485881 -7.352775 0.038676 0.310498 -178.837015 6.406743 -0.000004 -0.000005 -1.463181 -13.783931 5.606432 0.932207 -0.000004 0.000001 -0.185835 72.999607 -7.264127 -0.758982 25.456967 7.355616 -0.000000 
